<svg width="270" height="79" viewBox="0 0 270 79" fill="none" xmlns="http://www.w3.org/2000/svg">
<path fill-rule="evenodd" clip-rule="evenodd" d="M240.878 17.875C239.293 17.875 238.047 19.1839 238.047 20.7221V53.027C238.047 54.5636 239.35 55.8741 240.878 55.8741C242.411 55.8741 243.657 54.5636 243.657 53.027V20.7221C243.657 19.1289 242.466 17.875 240.878 17.875Z" fill="#FEFEFE"/>
<path fill-rule="evenodd" clip-rule="evenodd" d="M202.505 45.4486C202.505 48.0703 200.408 50.177 197.804 50.177C195.254 50.177 193.1 48.0115 193.1 45.4486V28.3567C193.1 25.7358 195.254 23.571 197.804 23.571C200.468 23.571 202.505 25.7358 202.505 28.3567V45.4486ZM197.861 17.8752C192.025 17.8752 187.435 22.4332 187.435 28.3567V45.4486C187.435 51.2598 192.025 55.8736 197.861 55.8736C203.64 55.8736 208.23 51.2598 208.23 45.4486V28.3567C208.23 22.489 203.64 17.8752 197.861 17.8752Z" fill="#FEFEFE"/>
<path fill-rule="evenodd" clip-rule="evenodd" d="M223.147 34.0545H218.444V24.5389H223.147C225.811 24.5389 227.851 26.7052 227.851 29.2688C227.851 31.8883 225.753 34.0545 223.147 34.0545ZM223.205 18.8424H215.613C214.819 18.8424 214.14 19.1281 213.628 19.6409C213.061 20.2674 212.779 20.9506 212.779 21.6918V53.0262C212.779 54.5636 214.14 55.8741 215.613 55.8741C217.142 55.8741 218.444 54.5636 218.444 53.0262V39.696H223.205C228.983 39.696 233.574 35.1373 233.574 29.2688C233.574 23.4577 229.04 18.8424 223.205 18.8424Z" fill="#FEFEFE"/>
<mask id="mask0_8_73" style="mask-type:luminance" maskUnits="userSpaceOnUse" x="249" y="18" width="21" height="38">
<path fill-rule="evenodd" clip-rule="evenodd" d="M249.206 18.8424H270V55.8741H249.206V18.8424Z" fill="white"/>
</mask>
<g mask="url(#mask0_8_73)">
<path fill-rule="evenodd" clip-rule="evenodd" d="M264.278 34.0545H259.575C258.272 34.0545 257.196 33.5418 256.232 32.5729C255.325 31.6613 254.87 30.5785 254.87 29.2688C254.87 27.9584 255.325 26.8756 256.288 25.909C257.251 24.9951 258.328 24.5389 259.575 24.5389H264.278V34.0545ZM267.167 18.8424H259.631C253.739 18.8424 249.206 23.4011 249.206 29.3261C249.206 32.2313 250.396 34.9654 252.604 36.8451C250.452 38.9533 249.206 41.4031 249.206 44.4818V53.0262C249.206 54.5636 250.509 55.8741 252.038 55.8741C253.569 55.8741 254.87 54.5636 254.87 53.0262V44.4818C254.87 41.9181 257.083 39.696 259.575 39.696H264.278V53.0262C264.278 54.5636 265.638 55.8741 267.167 55.8741C268.64 55.8741 270 54.5636 270 53.0262V21.6918C270 20.0963 268.754 18.8424 267.167 18.8424Z" fill="#FEFEFE"/>
</g>
<path fill-rule="evenodd" clip-rule="evenodd" d="M99.0176 18.6724C96.9685 18.9069 95.0841 19.6737 93.3598 20.8447C91.7302 21.8815 90.314 23.2251 89.1361 24.8221C88.634 25.4691 88.1913 26.1235 87.8282 26.7705C87.4644 26.1235 87.0217 25.4691 86.5188 24.8221C85.3432 23.2251 83.9256 21.8815 82.2975 20.8447C80.5731 19.6737 78.4978 18.8277 76.6381 18.6724C74.8807 18.4432 73.2939 19.6986 73.2939 21.5196V52.912C73.2939 54.5068 74.5425 55.818 76.1277 55.818C76.1368 55.818 76.1458 55.8142 76.1563 55.8142C76.1646 55.8142 76.1728 55.818 76.1834 55.818C77.7709 55.818 79.0728 54.5068 79.0728 52.912V25.6613C83.8399 28.5794 84.9005 34.4735 84.911 39.6957C84.9148 41.2897 86.2084 42.656 87.7967 42.656H87.8591C89.4488 42.656 90.7425 41.2897 90.7447 39.6957C90.7552 34.4735 91.8159 28.5794 96.5837 25.6613V52.912C96.5837 54.5068 97.8848 55.818 99.4731 55.818C99.4821 55.818 99.4904 55.8142 99.5009 55.8142C99.5099 55.8142 99.5197 55.818 99.5295 55.818C101.116 55.818 102.363 54.5068 102.363 52.912V21.5196C102.363 19.6986 100.775 18.4432 99.0176 18.6724Z" fill="#FEFEFE"/>
<path fill-rule="evenodd" clip-rule="evenodd" d="M108.99 17.875C107.402 17.875 106.157 19.1839 106.157 20.7221V28.3572C106.157 29.8954 107.459 31.2059 108.99 31.2059C110.517 31.2059 111.764 29.8954 111.764 28.3572V20.7221C111.764 19.1289 110.575 17.875 108.99 17.875Z" fill="#FEFEFE"/>
<path fill-rule="evenodd" clip-rule="evenodd" d="M182.869 18.8425H165.074C163.487 18.8425 162.243 20.0964 162.243 21.6919C162.243 23.2301 163.545 24.5391 165.074 24.5391H171.14V53.0271C171.14 54.5638 172.498 55.8743 174.028 55.8743C175.501 55.8743 176.86 54.5638 176.86 53.0271V24.5391H182.869C184.398 24.5391 185.701 23.2301 185.701 21.6919C185.701 20.0964 184.398 18.8425 182.869 18.8425Z" fill="#FEFEFE"/>
<path fill-rule="evenodd" clip-rule="evenodd" d="M129.892 34.0545H125.246C122.699 34.0545 120.487 31.8883 120.487 29.2688C120.487 26.7052 122.64 24.5389 125.246 24.5389H129.892V34.0545ZM132.783 18.8424H125.246C119.413 18.8424 114.878 23.4011 114.878 29.3261C114.878 32.2313 116.069 34.9654 118.278 36.8451C116.069 38.9533 114.878 41.4031 114.878 44.4818V53.0262C114.878 54.5636 116.182 55.8741 117.712 55.8741C119.241 55.8741 120.487 54.5636 120.487 53.0262V44.4818C120.487 41.9181 122.699 39.696 125.246 39.696H129.892V53.0262C129.892 54.5636 131.253 55.8741 132.783 55.8741C134.311 55.8741 135.616 54.5636 135.616 53.0262V21.6918C135.616 20.0963 134.37 18.8424 132.783 18.8424Z" fill="#FEFEFE"/>
<path fill-rule="evenodd" clip-rule="evenodd" d="M150.793 23.5713C153.399 23.5713 155.496 25.7361 155.496 28.3578C155.496 29.8959 156.797 31.2057 158.329 31.2057C159.859 31.2057 161.16 29.8394 161.16 28.3578C161.16 22.4893 156.629 17.8747 150.793 17.8747C144.954 17.8747 140.424 22.4893 140.424 28.3578V45.4497C140.424 51.2608 144.954 55.8739 150.793 55.8739C156.571 55.8739 161.16 51.2608 161.16 45.4497C161.16 43.8534 159.915 42.6018 158.329 42.6018C156.742 42.6018 155.496 43.8534 155.496 45.4497C155.496 48.0699 153.343 50.1781 150.793 50.1781C148.242 50.1781 146.034 48.0118 146.034 45.4497V28.3578C146.034 25.7361 148.187 23.5713 150.793 23.5713Z" fill="#FEFEFE"/>
<mask id="mask1_8_73" style="mask-type:luminance" maskUnits="userSpaceOnUse" x="0" y="0" width="62" height="79">
<path fill-rule="evenodd" clip-rule="evenodd" d="M0 0H61.0713V79H0V0Z" fill="white"/>
</mask>
<g mask="url(#mask1_8_73)">
<path fill-rule="evenodd" clip-rule="evenodd" d="M45.8706 47.6091C44.6146 49.3222 40.0512 54.9984 34.4632 55.5745C34.1363 55.6054 33.8116 55.6227 33.4981 55.6227C23.116 55.6227 22.3087 38.4946 22.3087 33.2437V22.8534L22.7838 23.2937C25.9897 26.2676 26.6098 29.2949 26.5572 32.924C26.6774 35.2825 28.3514 36.3457 29.9577 36.3457C31.5896 36.3457 33.3613 35.2606 33.3906 32.878C33.4402 29.1253 33.7198 26.6076 37.185 23.2975L37.6616 22.8406V43.9551C37.6616 45.9035 39.1815 47.4311 41.12 47.4311C43.0917 47.4311 44.5762 45.9352 44.5762 43.9551V17.5768C44.5762 15.8878 43.3149 14.416 41.6432 14.1551C41.3944 14.1121 41.1373 14.0903 40.8757 14.0903C37.1264 14.0903 32.3608 18.3625 30.2366 21.0566L30.0141 21.3386L29.7916 21.0551C27.6922 18.3655 22.9416 14.0956 19.1322 14.0956C18.6428 14.0956 18.1783 14.1687 17.7536 14.3135C16.3984 14.7704 15.452 16.1133 15.452 17.5768V33.6154C15.452 34.5549 15.4798 35.5547 15.5272 36.4324C16.1488 47.8436 19.6433 61.6352 32.7532 62.5295C33.0772 62.5506 33.3959 62.5611 33.7078 62.5611C36.2936 62.5611 38.6658 61.8026 40.9622 60.241L41.9055 59.5986L41.3703 60.609C39.1702 64.7545 34.9473 71.754 31.3987 72.0406C31.2814 72.0571 31.1454 72.0662 31.0093 72.0662C25.4154 72.0677 16.3397 56.6497 13.8337 50.7903C10.6969 43.4681 8.19689 35.0948 7.46701 29.4631L7.349 28.5959C6.52367 22.5842 5.92759 18.2404 11.5403 14.888C11.8229 14.7191 13.3443 13.8271 13.9178 13.5331C19.3411 10.741 32.8261 6.84499 42.4715 6.84499C48.2707 6.84499 51.7562 8.21729 52.8288 10.9212C56.7488 19.3111 51.1894 41.0628 45.8706 47.6091ZM55.1191 3.1066C52.2876 1.04438 47.9557 -0.00143433 42.243 -0.00143433C30.411 -0.00143433 15.6565 4.51283 8.22845 8.87705C0.0427666 13.6416 -0.802862 20.3878 0.489259 29.7292C1.32211 35.5291 3.65905 44.9467 7.72033 53.9797C8.87038 56.5403 19.3066 79.0001 31.1386 79.0001H31.1401C31.3258 79.0001 31.5107 78.9933 31.6979 78.9835C38.3644 78.5492 44.9739 70.7504 51.342 55.8082C53.8413 49.9827 55.9152 44.3766 57.5072 39.1438C60.347 29.7307 62.9508 16.77 59.2203 8.46385C58.2311 6.24329 57.2411 4.65308 55.1191 3.1066Z" fill="#E3051B"/>
</g>
</svg>
