<svg width="336" height="145" viewBox="0 0 336 145" fill="none" xmlns="http://www.w3.org/2000/svg">
<g filter="url(#filter0_d_8_73)">
<path fill-rule="evenodd" clip-rule="evenodd" d="M273.878 48.875C272.293 48.875 271.047 50.1839 271.047 51.7221V84.027C271.047 85.5636 272.35 86.8741 273.878 86.8741C275.411 86.8741 276.657 85.5636 276.657 84.027V51.7221C276.657 50.1289 275.466 48.875 273.878 48.875Z" fill="#FEFEFE"/>
<path fill-rule="evenodd" clip-rule="evenodd" d="M235.505 76.4486C235.505 79.0703 233.408 81.177 230.804 81.177C228.254 81.177 226.1 79.0115 226.1 76.4486V59.3567C226.1 56.7358 228.254 54.571 230.804 54.571C233.468 54.571 235.505 56.7358 235.505 59.3567V76.4486ZM230.861 48.8752C225.025 48.8752 220.435 53.4332 220.435 59.3567V76.4486C220.435 82.2598 225.025 86.8736 230.861 86.8736C236.64 86.8736 241.23 82.2598 241.23 76.4486V59.3567C241.23 53.489 236.64 48.8752 230.861 48.8752Z" fill="#FEFEFE"/>
<path fill-rule="evenodd" clip-rule="evenodd" d="M256.147 65.0545H251.444V55.5389H256.147C258.811 55.5389 260.851 57.7052 260.851 60.2688C260.851 62.8883 258.753 65.0545 256.147 65.0545ZM256.205 49.8424H248.613C247.819 49.8424 247.14 50.1281 246.628 50.6409C246.061 51.2674 245.779 51.9506 245.779 52.6918V84.0262C245.779 85.5636 247.14 86.8741 248.613 86.8741C250.142 86.8741 251.444 85.5636 251.444 84.0262V70.696H256.205C261.983 70.696 266.574 66.1373 266.574 60.2688C266.574 54.4577 262.04 49.8424 256.205 49.8424Z" fill="#FEFEFE"/>
<mask id="mask0_8_73" style="mask-type:luminance" maskUnits="userSpaceOnUse" x="282" y="49" width="21" height="38">
<path fill-rule="evenodd" clip-rule="evenodd" d="M282.206 49.8424H303V86.8741H282.206V49.8424Z" fill="white"/>
</mask>
<g mask="url(#mask0_8_73)">
<path fill-rule="evenodd" clip-rule="evenodd" d="M297.278 65.0545H292.575C291.272 65.0545 290.196 64.5418 289.232 63.5729C288.325 62.6613 287.87 61.5785 287.87 60.2688C287.87 58.9584 288.325 57.8756 289.288 56.909C290.251 55.9951 291.328 55.5389 292.575 55.5389H297.278V65.0545ZM300.167 49.8424H292.631C286.739 49.8424 282.206 54.4011 282.206 60.3261C282.206 63.2313 283.396 65.9654 285.604 67.8451C283.452 69.9533 282.206 72.4031 282.206 75.4818V84.0262C282.206 85.5636 283.509 86.8741 285.038 86.8741C286.569 86.8741 287.87 85.5636 287.87 84.0262V75.4818C287.87 72.9181 290.083 70.696 292.575 70.696H297.278V84.0262C297.278 85.5636 298.638 86.8741 300.167 86.8741C301.64 86.8741 303 85.5636 303 84.0262V52.6918C303 51.0963 301.754 49.8424 300.167 49.8424Z" fill="#FEFEFE"/>
</g>
<path fill-rule="evenodd" clip-rule="evenodd" d="M132.018 49.6724C129.969 49.9069 128.084 50.6737 126.36 51.8447C124.73 52.8815 123.314 54.2251 122.136 55.8221C121.634 56.4691 121.191 57.1235 120.828 57.7705C120.464 57.1235 120.022 56.4691 119.519 55.8221C118.343 54.2251 116.926 52.8815 115.297 51.8447C113.573 50.6737 111.498 49.8277 109.638 49.6724C107.881 49.4432 106.294 50.6986 106.294 52.5196V83.912C106.294 85.5068 107.542 86.818 109.128 86.818C109.137 86.818 109.146 86.8142 109.156 86.8142C109.165 86.8142 109.173 86.818 109.183 86.818C110.771 86.818 112.073 85.5068 112.073 83.912V56.6613C116.84 59.5794 117.9 65.4735 117.911 70.6957C117.915 72.2897 119.208 73.656 120.797 73.656H120.859C122.449 73.656 123.742 72.2897 123.745 70.6957C123.755 65.4735 124.816 59.5794 129.584 56.6613V83.912C129.584 85.5068 130.885 86.818 132.473 86.818C132.482 86.818 132.49 86.8142 132.501 86.8142C132.51 86.8142 132.52 86.818 132.529 86.818C134.116 86.818 135.363 85.5068 135.363 83.912V52.5196C135.363 50.6986 133.775 49.4432 132.018 49.6724Z" fill="#FEFEFE"/>
<path fill-rule="evenodd" clip-rule="evenodd" d="M141.99 48.875C140.402 48.875 139.157 50.1839 139.157 51.7221V59.3572C139.157 60.8954 140.459 62.2059 141.99 62.2059C143.517 62.2059 144.764 60.8954 144.764 59.3572V51.7221C144.764 50.1289 143.575 48.875 141.99 48.875Z" fill="#FEFEFE"/>
<path fill-rule="evenodd" clip-rule="evenodd" d="M215.869 49.8425H198.074C196.487 49.8425 195.243 51.0964 195.243 52.6919C195.243 54.2301 196.545 55.5391 198.074 55.5391H204.14V84.0271C204.14 85.5638 205.498 86.8743 207.028 86.8743C208.501 86.8743 209.86 85.5638 209.86 84.0271V55.5391H215.869C217.398 55.5391 218.701 54.2301 218.701 52.6919C218.701 51.0964 217.398 49.8425 215.869 49.8425Z" fill="#FEFEFE"/>
<path fill-rule="evenodd" clip-rule="evenodd" d="M162.892 65.0545H158.246C155.699 65.0545 153.487 62.8883 153.487 60.2688C153.487 57.7052 155.64 55.5389 158.246 55.5389H162.892V65.0545ZM165.783 49.8424H158.246C152.413 49.8424 147.878 54.4011 147.878 60.3261C147.878 63.2313 149.069 65.9654 151.278 67.8451C149.069 69.9533 147.878 72.4031 147.878 75.4818V84.0262C147.878 85.5636 149.182 86.8741 150.712 86.8741C152.241 86.8741 153.487 85.5636 153.487 84.0262V75.4818C153.487 72.9181 155.699 70.696 158.246 70.696H162.892V84.0262C162.892 85.5636 164.253 86.8741 165.783 86.8741C167.311 86.8741 168.616 85.5636 168.616 84.0262V52.6918C168.616 51.0963 167.37 49.8424 165.783 49.8424Z" fill="#FEFEFE"/>
<path fill-rule="evenodd" clip-rule="evenodd" d="M183.793 54.5713C186.399 54.5713 188.496 56.7361 188.496 59.3578C188.496 60.8959 189.797 62.2057 191.329 62.2057C192.859 62.2057 194.16 60.8394 194.16 59.3578C194.16 53.4893 189.629 48.8747 183.793 48.8747C177.954 48.8747 173.424 53.4893 173.424 59.3578V76.4497C173.424 82.2608 177.954 86.8739 183.793 86.8739C189.571 86.8739 194.16 82.2608 194.16 76.4497C194.16 74.8534 192.915 73.6018 191.329 73.6018C189.742 73.6018 188.496 74.8534 188.496 76.4497C188.496 79.0699 186.343 81.1781 183.793 81.1781C181.242 81.1781 179.034 79.0118 179.034 76.4497V59.3578C179.034 56.7361 181.187 54.5713 183.793 54.5713Z" fill="#FEFEFE"/>
<mask id="mask1_8_73" style="mask-type:luminance" maskUnits="userSpaceOnUse" x="33" y="31" width="62" height="79">
<path fill-rule="evenodd" clip-rule="evenodd" d="M33 31H94.0713V110H33V31Z" fill="white"/>
</mask>
<g mask="url(#mask1_8_73)">
<path fill-rule="evenodd" clip-rule="evenodd" d="M78.8706 78.6091C77.6146 80.3222 73.0512 85.9984 67.4632 86.5745C67.1363 86.6054 66.8116 86.6227 66.4981 86.6227C56.116 86.6227 55.3087 69.4946 55.3087 64.2437V53.8534L55.7838 54.2937C58.9897 57.2676 59.6098 60.2949 59.5572 63.924C59.6774 66.2825 61.3514 67.3457 62.9577 67.3457C64.5896 67.3457 66.3613 66.2606 66.3906 63.878C66.4402 60.1253 66.7198 57.6076 70.185 54.2975L70.6616 53.8406V74.9551C70.6616 76.9035 72.1815 78.4311 74.12 78.4311C76.0917 78.4311 77.5762 76.9352 77.5762 74.9551V48.5768C77.5762 46.8878 76.3149 45.416 74.6432 45.1551C74.3944 45.1121 74.1373 45.0903 73.8757 45.0903C70.1264 45.0903 65.3608 49.3625 63.2366 52.0566L63.0141 52.3386L62.7916 52.0551C60.6922 49.3655 55.9416 45.0956 52.1322 45.0956C51.6428 45.0956 51.1783 45.1687 50.7536 45.3135C49.3984 45.7704 48.452 47.1133 48.452 48.5768V64.6154C48.452 65.5549 48.4798 66.5547 48.5272 67.4324C49.1488 78.8436 52.6433 92.6352 65.7532 93.5295C66.0772 93.5506 66.3959 93.5611 66.7078 93.5611C69.2936 93.5611 71.6658 92.8026 73.9622 91.241L74.9055 90.5986L74.3703 91.609C72.1702 95.7545 67.9473 102.754 64.3987 103.041C64.2814 103.057 64.1454 103.066 64.0093 103.066C58.4154 103.068 49.3397 87.6497 46.8337 81.7903C43.6969 74.4681 41.1969 66.0948 40.467 60.4631L40.349 59.5959C39.5237 53.5842 38.9276 49.2404 44.5403 45.888C44.8229 45.7191 46.3443 44.8271 46.9178 44.5331C52.3411 41.741 65.8261 37.845 75.4715 37.845C81.2707 37.845 84.7562 39.2173 85.8288 41.9212C89.7488 50.3111 84.1894 72.0628 78.8706 78.6091ZM88.1191 34.1066C85.2876 32.0444 80.9557 30.9986 75.243 30.9986C63.411 30.9986 48.6565 35.5128 41.2285 39.877C33.0428 44.6416 32.1971 51.3878 33.4893 60.7292C34.3221 66.5291 36.6591 75.9467 40.7203 84.9797C41.8704 87.5403 52.3066 110 64.1386 110H64.1401C64.3258 110 64.5107 109.993 64.6979 109.983C71.3644 109.549 77.9739 101.75 84.342 86.8082C86.8413 80.9827 88.9152 75.3766 90.5072 70.1438C93.347 60.7307 95.9508 47.77 92.2203 39.4638C91.2311 37.2433 90.2411 35.6531 88.1191 34.1066Z" fill="#E3051B"/>
</g>
</g>
<defs>
<filter id="filter0_d_8_73" x="0" y="0" width="336" height="145" filterUnits="userSpaceOnUse" color-interpolation-filters="sRGB">
<feFlood flood-opacity="0" result="BackgroundImageFix"/>
<feColorMatrix in="SourceAlpha" type="matrix" values="0 0 0 0 0 0 0 0 0 0 0 0 0 0 0 0 0 0 127 0" result="hardAlpha"/>
<feOffset dy="2"/>
<feGaussianBlur stdDeviation="16.5"/>
<feColorMatrix type="matrix" values="0 0 0 0 0 0 0 0 0 0 0 0 0 0 0 0 0 0 1 0"/>
<feBlend mode="normal" in2="BackgroundImageFix" result="effect1_dropShadow_8_73"/>
<feBlend mode="normal" in="SourceGraphic" in2="effect1_dropShadow_8_73" result="shape"/>
</filter>
</defs>
</svg>
