<?xml version="1.0" standalone="no"?>
<!DOCTYPE svg PUBLIC "-//W3C//DTD SVG 20010904//EN"
 "http://www.w3.org/TR/2001/REC-SVG-20010904/DTD/svg10.dtd">
<svg version="1.0" xmlns="http://www.w3.org/2000/svg"
 width="700.000000pt" height="700.000000pt" viewBox="0 0 700.000000 700.000000"
 preserveAspectRatio="xMidYMid meet">
<metadata>
Created by potrace 1.14, written by Peter Selinger 2001-2017
</metadata>
<g transform="translate(0.000000,700.000000) scale(0.100000,-0.100000)"
fill="#000000" stroke="none">
<path d="M0 3500 l0 -3500 3500 0 3500 0 0 3500 0 3500 -3500 0 -3500 0 0
-3500z m4890 3256 c428 -65 708 -212 877 -461 283 -418 344 -1044 187 -1910
-38 -207 -112 -520 -175 -740 -173 -600 -473 -1377 -749 -1942 -254 -519 -485
-870 -739 -1124 -172 -171 -323 -271 -506 -336 -75 -26 -90 -28 -240 -27 -148
0 -166 2 -245 28 -375 123 -752 469 -1139 1041 -435 645 -756 1360 -986 2200
-136 493 -202 886 -212 1255 -8 328 24 520 121 726 157 331 440 556 998 793
652 276 1375 451 2128 515 109 9 580 -3 680 -18z"/>
<path d="M4255 6204 c-216 -21 -367 -40 -513 -64 -561 -94 -1244 -296 -1595
-471 -143 -72 -304 -171 -369 -226 -120 -102 -203 -237 -233 -379 -37 -170 -6
-558 76 -984 102 -526 358 -1280 594 -1745 287 -568 683 -1132 961 -1368 288
-245 456 -244 705 6 145 146 305 376 479 689 43 79 77 144 76 146 -2 2 -39
-20 -82 -48 -266 -174 -548 -224 -874 -155 -670 141 -1085 773 -1204 1835 -30
265 -37 529 -34 1240 3 692 3 706 24 751 31 66 78 115 142 146 113 55 291 30
462 -64 175 -97 383 -267 515 -422 l69 -82 60 68 c310 355 690 572 918 524
113 -24 205 -115 228 -224 7 -36 10 -397 8 -1187 l-3 -1135 -23 -51 c-100
-221 -405 -226 -520 -9 l-27 50 -5 913 -5 913 -74 -74 c-135 -136 -222 -289
-250 -442 -7 -33 -16 -133 -21 -222 -10 -180 -24 -230 -83 -291 -49 -51 -102
-75 -183 -80 -182 -12 -304 108 -304 297 0 244 -51 438 -159 601 -38 58 -177
210 -192 210 -12 0 -11 -841 1 -1073 33 -619 152 -1066 360 -1346 100 -135
209 -217 355 -267 70 -24 95 -28 205 -28 143 0 214 15 352 74 257 110 557 386
761 701 249 383 490 1137 578 1809 26 204 37 588 20 741 -26 234 -97 433 -185
521 -87 88 -225 148 -416 183 -91 16 -490 29 -595 19z"/>
</g>
</svg>
